<svg width="9" height="8" viewBox="0 0 9 8" fill="none" xmlns="http://www.w3.org/2000/svg">
<path fill-rule="evenodd" clip-rule="evenodd" d="M6.96967 0.97028C7.10962 0.831552 7.29854 0.753476 7.4956 0.752933C7.69266 0.752389 7.88201 0.829421 8.02272 0.967375C8.16344 1.10533 8.2442 1.29312 8.24756 1.49015C8.25092 1.68718 8.1766 1.87761 8.04067 2.02028L4.04867 7.01028C3.98006 7.08418 3.89725 7.14348 3.8052 7.18465C3.71315 7.22581 3.61374 7.24799 3.51292 7.24986C3.4121 7.25172 3.31194 7.23324 3.21843 7.19551C3.12491 7.15778 3.03997 7.10159 2.96867 7.03028L0.323669 4.38428C0.249983 4.31562 0.19088 4.23282 0.149888 4.14082C0.108896 4.04882 0.0868544 3.94951 0.0850777 3.8488C0.0833009 3.7481 0.101826 3.64807 0.139547 3.55468C0.177268 3.46129 0.233412 3.37646 0.304631 3.30524C0.37585 3.23402 0.460684 3.17788 0.554072 3.14016C0.64746 3.10244 0.747489 3.08391 0.848192 3.08569C0.948895 3.08747 1.04821 3.10951 1.14021 3.1505C1.23221 3.19149 1.31501 3.25059 1.38367 3.32428L3.47767 5.41728L6.95067 0.99228C6.95687 0.984534 6.96355 0.977186 6.97067 0.97028H6.96967Z" fill="#022144"/>
</svg>
