<svg width="20" height="20" viewBox="0 0 20 20" fill="none" xmlns="http://www.w3.org/2000/svg">
<path d="M4.9059 11.5414L8.4569 15.0944L14.9749 8.57637L11.4219 5.02537L4.9059 11.5414ZM19.1039 6.66437L17.5929 5.15237C17.2091 5.36207 16.7677 5.44182 16.3348 5.37968C15.9019 5.31754 15.5008 5.11685 15.1915 4.80766C14.8822 4.49847 14.6813 4.09741 14.619 3.66453C14.5568 3.23165 14.6363 2.79023 14.8459 2.40637L13.3349 0.894368C13.1444 0.705549 12.8871 0.599609 12.6189 0.599609C12.3507 0.599609 12.0934 0.705549 11.9029 0.894368L0.892903 11.9044C0.704084 12.0948 0.598145 12.3522 0.598145 12.6204C0.598145 12.8886 0.704084 13.1459 0.892903 13.3364L2.4049 14.8464C2.78888 14.6361 3.23068 14.556 3.66403 14.6181C4.09737 14.6802 4.49891 14.8811 4.8084 15.1907C5.1179 15.5003 5.31867 15.902 5.3806 16.3353C5.44253 16.7687 5.36229 17.2105 5.1519 17.5944L6.6639 19.1044C6.85411 19.2937 7.11155 19.3999 7.3799 19.3999C7.64826 19.3999 7.90569 19.2937 8.0959 19.1044L19.1039 8.09637C19.2932 7.90616 19.3995 7.64872 19.3995 7.38037C19.3995 7.11201 19.2932 6.85458 19.1039 6.66437ZM8.4569 16.7194L3.2809 11.5414L11.4229 3.40037L16.5989 8.57637L8.4569 16.7194Z" fill="black"/>
</svg>
